<svg width="78" height="78" viewBox="0 0 78 78" fill="none" xmlns="http://www.w3.org/2000/svg">
<path d="M70.7334 17.2213C73.0714 20.7302 69.2785 24.3718 65.3163 22.9295C55.4582 19.3411 43.9167 16.2257 31.4189 13.9561L29.543 13.623C26.9264 13.1691 24.3346 12.7638 21.7749 12.4061C17.6775 11.8334 16.1065 6.95518 19.7129 4.92774C25.2943 1.78999 31.7348 1.45962e-05 38.5938 0C52.0041 0 63.8164 6.83993 70.7334 17.2213ZM73.377 54.1484C60.3799 55.838 42.4908 55.2837 22.9043 51.8857C16.1702 50.7175 9.73849 49.2992 3.72282 47.6996C1.9847 47.2374 0.638468 45.8352 0.385407 44.0546C0.131879 42.2707 0 40.4476 0 38.5938C1.41072e-05 31.9641 1.67217 25.7253 4.61705 20.2751C5.46418 18.7073 7.19062 17.8588 8.96636 18.0084C15.1421 18.5289 21.6446 19.357 28.3457 20.5195C47.9321 23.9175 64.9624 29.421 76.6309 35.3896V35.3896C76.9082 35.5315 77.0904 35.81 77.11 36.1209C77.1616 36.9385 77.1875 37.7631 77.1875 38.5938C77.1875 43.8902 76.1187 48.9366 74.1879 53.5314C74.047 53.8667 73.7376 54.1016 73.377 54.1484V54.1484ZM38.5938 77.1875C26.8051 77.1875 16.2526 71.9012 9.17429 63.5703C6.50701 60.431 9.63537 56.4032 13.6677 57.2459C16.2997 57.796 18.9823 58.3094 21.708 58.7822L23.5869 59.1006C36.2217 61.1903 48.2309 62.1432 58.7842 62.068C62.9851 62.038 65.3528 66.7187 62.0157 69.2705C55.5205 74.237 47.4016 77.1875 38.5938 77.1875Z" fill="white"/>
</svg>
